<?xml version="1.0" standalone="no"?>
<!DOCTYPE svg PUBLIC "-//W3C//DTD SVG 20010904//EN"
 "http://www.w3.org/TR/2001/REC-SVG-20010904/DTD/svg10.dtd">
<svg version="1.0" xmlns="http://www.w3.org/2000/svg"
 width="260.000000pt" height="260.000000pt" viewBox="0 0 260.000000 260.000000"
 preserveAspectRatio="xMidYMid meet">
<metadata>
Created by potrace 1.14, written by Peter Selinger 2001-2017
</metadata>
<g transform="translate(0.000000,260.000000) scale(0.100000,-0.100000)"
fill="#000000" stroke="none">
<path d="M695 2589 c-3 -4 -1 -11 5 -14 17 -10 -7 -34 -29 -28 -21 5 -45 -21
-37 -42 4 -12 2 -13 -13 -6 -13 7 -18 6 -18 -4 0 -8 5 -11 11 -8 6 4 5 -1 -3
-10 -7 -9 -21 -17 -30 -17 -12 0 -13 -2 -3 -9 10 -6 8 -10 -8 -14 -15 -4 -21
-11 -17 -21 4 -11 1 -16 -11 -16 -15 0 -15 -2 -2 -10 13 -9 7 -14 -12 -11 -7
1 -11 -14 -6 -21 4 -7 -24 -48 -31 -44 -4 3 -8 -1 -8 -9 0 -8 5 -11 11 -8 6 4
3 -3 -7 -14 -9 -11 -14 -23 -10 -26 3 -4 1 -7 -5 -7 -7 0 -11 -3 -10 -7 1 -9
-9 -40 -23 -66 -5 -10 -7 -22 -4 -27 3 -5 1 -11 -5 -15 -6 -4 -8 -10 -5 -15 3
-5 1 -11 -5 -15 -6 -4 -8 -11 -5 -16 4 -5 2 -9 -2 -9 -5 0 -9 -8 -10 -17 -1
-10 -6 -46 -10 -80 -5 -35 -9 -76 -8 -93 1 -17 -4 -31 -12 -35 -8 -2 -12 -9
-8 -15 3 -5 1 -18 -4 -28 -6 -11 -7 -22 -4 -26 4 -4 8 -16 10 -27 3 -17 -1
-19 -19 -14 -13 3 -6 -3 16 -14 21 -11 43 -18 49 -14 6 3 7 1 3 -5 -4 -7 -2
-12 5 -12 7 0 9 -3 6 -6 -4 -4 -19 1 -34 10 l-28 17 25 -22 c14 -12 24 -25 23
-30 -2 -5 4 -6 11 -3 21 8 59 -15 52 -32 -3 -7 -2 -13 2 -13 35 6 76 -33 70
-65 -5 -24 -5 -24 21 -8 25 16 25 16 12 -1 -8 -10 -9 -17 -3 -17 6 0 14 5 17
10 10 16 35 12 35 -6 0 -9 5 -12 13 -8 8 5 7 2 -2 -9 -12 -15 -12 -17 3 -11
22 8 79 -46 65 -62 -5 -7 -3 -11 6 -11 8 0 15 6 15 13 0 16 28 26 36 13 4 -7
10 -6 18 0 7 6 17 7 21 3 5 -4 5 -2 1 5 -4 7 -14 10 -24 7 -15 -5 -15 -5 1 6
9 6 22 8 27 5 9 -6 14 7 11 27 0 4 6 5 14 2 8 -4 15 -11 15 -17 0 -6 3 -7 6
-4 4 4 1 13 -5 21 -9 11 -9 16 0 22 8 5 10 3 4 -7 -4 -8 2 -4 14 9 12 12 19
27 16 32 -3 6 2 10 12 10 15 0 16 2 3 10 -10 6 -11 10 -2 10 6 0 12 4 12 9 0
5 8 26 17 47 9 22 17 42 17 46 1 3 4 9 8 13 4 4 4 14 1 23 -4 8 -2 13 3 9 5
-3 10 2 10 11 1 9 5 40 9 67 13 79 16 337 4 351 -7 8 -6 14 2 19 7 5 8 10 1
14 -15 9 -22 81 -8 82 6 0 3 4 -7 8 -18 7 -18 8 -1 21 10 8 15 10 11 4 -4 -7
0 -14 8 -18 17 -6 17 -7 22 49 1 22 5 56 6 75 4 43 -2 72 -15 64 -5 -3 -8 2
-6 12 2 11 -3 19 -12 19 -8 1 -14 7 -12 15 3 11 0 11 -14 -1 -12 -9 -15 -9
-10 -1 5 8 0 12 -13 12 -12 0 -21 5 -21 10 0 6 5 10 11 10 5 0 7 5 3 11 -4 8
-9 7 -15 -2 -7 -12 -12 -7 -11 11 0 3 -20 6 -45 7 -35 1 -43 -1 -39 -13 3 -8
0 -14 -6 -14 -7 0 -7 -4 -1 -12 5 -7 8 -23 7 -35 0 -12 3 -20 7 -17 5 3 9 0 9
-6 0 -6 5 -8 10 -5 6 3 10 1 10 -6 0 -7 3 -9 7 -5 4 4 -3 16 -17 27 l-25 20
25 -12 c14 -7 29 -12 33 -11 5 1 6 -2 2 -8 -3 -5 0 -10 8 -10 8 0 20 -7 27
-15 11 -13 10 -14 -5 -9 -16 7 -16 5 -3 -17 8 -13 14 -30 13 -36 -2 -7 -3 -17
-4 -23 0 -5 -6 -10 -12 -10 -8 0 -8 5 1 15 9 11 9 15 1 15 -7 0 -9 5 -5 12 5
8 2 9 -11 5 -20 -8 -48 10 -38 26 4 6 1 7 -6 3 -7 -5 -10 -15 -7 -23 4 -9 2
-11 -6 -7 -8 5 -9 1 -4 -12 5 -13 -1 -10 -17 9 -20 23 -26 25 -31 12 -3 -9
-10 -14 -15 -11 -5 3 -11 -1 -15 -9 -3 -8 3 -19 12 -24 23 -14 6 -14 -20 0
-16 9 -19 8 -13 -2 6 -9 3 -11 -8 -6 -11 4 -14 2 -11 -7 3 -8 0 -17 -7 -22 -7
-4 -10 -3 -5 4 3 6 2 13 -3 16 -10 7 -9 -13 1 -30 4 -6 1 -11 -7 -11 -8 0 -15
4 -15 9 0 5 -5 6 -11 2 -8 -5 -8 -1 0 13 6 11 7 23 4 27 -3 3 -1 6 6 6 7 0 10
4 6 9 -3 5 -1 12 5 16 6 4 8 11 5 16 -3 5 1 6 9 3 11 -4 16 0 16 10 0 9 9 25
20 36 11 11 20 26 20 34 0 8 5 18 11 22 8 4 7 9 -2 15 -9 6 -10 9 -2 9 6 0 10
8 9 18 -2 12 -13 17 -35 18 -17 1 -34 -3 -36 -7z m202 -35 c2 -19 2 -19 -4 0
-3 13 -7 15 -13 7 -5 -10 -9 -9 -13 2 -4 10 0 14 11 13 9 -2 18 -11 19 -22z
m-47 -14 c0 -5 -2 -10 -4 -10 -3 0 -8 5 -11 10 -3 6 -1 10 4 10 6 0 11 -4 11
-10z m-198 -22 c-7 -7 -12 -8 -12 -2 0 14 12 26 19 19 2 -3 -1 -11 -7 -17z
m331 -13 c-3 -9 -8 -14 -10 -11 -3 3 -2 9 2 15 9 16 15 13 8 -4z m-203 -95
c-24 -15 -36 -11 -14 4 10 8 21 12 24 10 2 -3 -2 -9 -10 -14z"/>
<path d="M680 2559 c0 -5 5 -7 10 -4 6 3 10 8 10 11 0 2 -4 4 -10 4 -5 0 -10
-5 -10 -11z"/>
<path d="M1079 2440 c-1 -8 -1 -18 0 -22 0 -5 -4 -8 -10 -8 -6 0 -9 -7 -6 -15
4 -8 -4 -22 -16 -32 -26 -21 -29 -90 -4 -108 14 -10 14 -12 -1 -21 -13 -9 -13
-12 -2 -19 8 -5 11 -4 6 3 -4 6 1 10 13 9 11 0 17 -5 15 -9 -3 -4 1 -8 9 -8 8
0 21 -8 28 -17 13 -17 13 -17 -5 -3 -13 10 -17 11 -12 2 4 -7 3 -19 -4 -27 -8
-10 -8 -15 1 -21 7 -4 9 -3 5 4 -3 6 -2 13 4 17 5 3 10 -3 10 -14 0 -24 -8
-26 -32 -7 -10 7 -14 17 -10 22 4 4 -2 2 -12 -6 -17 -13 -18 -13 -11 -1 6 11
4 13 -11 8 -18 -7 -18 -7 0 7 18 15 18 15 -1 13 -18 -1 -20 -8 -18 -89 1 -48
-2 -85 -7 -82 -4 3 -5 -2 -2 -10 3 -9 11 -16 18 -16 6 0 4 -5 -4 -10 -11 -7
-11 -10 -2 -10 7 0 10 -4 7 -10 -3 -5 -1 -10 6 -10 9 0 9 -3 0 -14 -9 -11 -9
-16 0 -22 8 -5 9 -3 4 6 -5 8 -4 11 3 7 12 -8 5 -44 -11 -54 -6 -4 -7 -1 -2 7
5 8 4 11 -3 6 -6 -4 -9 -13 -5 -21 3 -8 -1 -15 -8 -15 -7 0 -9 -3 -6 -7 4 -3
1 -13 -6 -21 -9 -12 -9 -14 0 -9 9 6 8 -3 -2 -28 -9 -19 -15 -37 -15 -40 1
-15 -14 -62 -24 -74 -8 -12 -8 -13 2 -7 11 7 11 4 1 -12 -15 -23 -7 -47 20
-61 17 -10 19 -8 16 10 -3 16 -1 18 9 10 11 -9 12 -6 8 14 -2 15 0 25 7 25 7
0 9 -6 5 -12 -3 -7 6 -1 20 15 23 23 46 29 46 11 0 -3 -5 -2 -12 2 -7 4 -8 3
-4 -5 11 -17 26 -3 19 17 -5 14 -3 14 9 -2 9 -12 21 -17 32 -13 12 5 16 1 16
-16 0 -14 3 -18 8 -10 9 14 37 12 52 -3 7 -7 6 -11 -4 -11 -8 0 -13 3 -11 7 2
4 -2 7 -9 7 -7 0 -13 -5 -13 -12 0 -6 15 -11 33 -11 24 0 30 4 26 15 -4 10 -1
12 8 6 9 -5 11 -4 6 4 -4 6 -10 23 -12 38 -6 34 -13 45 -25 38 -5 -3 -6 1 -3
9 3 8 2 21 -2 28 -12 19 -14 38 -3 38 5 0 9 -5 9 -12 0 -6 3 -9 6 -6 3 4 0 17
-7 30 -12 22 -11 22 6 8 10 -8 16 -10 13 -5 -4 6 -2 17 3 25 8 13 10 13 18 0
5 -8 7 -18 5 -22 -3 -4 0 -8 5 -8 13 0 10 -22 -4 -32 -6 -5 -5 -8 3 -8 8 0 10
-5 6 -12 -4 -7 -3 -9 1 -5 9 8 16 30 18 60 1 10 7 15 13 13 9 -3 11 5 9 25 -3
20 0 27 7 23 6 -4 8 -3 5 3 -6 10 -17 71 -19 103 0 8 -5 21 -11 28 -6 8 -6 12
2 12 7 0 9 4 6 10 -7 12 -14 41 -22 90 -3 19 -8 40 -12 45 -4 6 -6 20 -5 33 0
12 -2 22 -6 22 -4 0 -7 6 -8 13 -2 28 -12 61 -28 84 -11 18 -12 23 -3 18 8 -3
7 -1 -2 7 -9 7 -14 18 -12 24 2 7 -8 21 -22 32 -14 11 -25 25 -25 31 0 6 -5
11 -11 11 -5 0 -7 -4 -4 -10 3 -5 0 -7 -9 -4 -8 3 -12 13 -9 22 4 15 3 15 -6
2 -10 -13 -12 -13 -21 0 -9 13 -10 13 -11 0z"/>
<path d="M1033 2378 c-2 -16 1 -18 10 -9 7 7 8 14 1 21 -6 6 -10 2 -11 -12z"/>
<path d="M321 1723 c12 -15 12 -16 -3 -11 -10 4 -19 1 -22 -8 -3 -8 -2 -13 3
-10 5 4 4 -5 -2 -18 -7 -13 -15 -22 -19 -20 -4 3 -5 -5 -3 -16 2 -11 0 -20 -6
-20 -5 0 -8 -6 -7 -12 2 -7 -1 -12 -7 -11 -5 1 -10 -14 -10 -33 0 -19 5 -34
10 -34 6 0 5 -4 -2 -8 -13 -8 -8 -20 21 -42 12 -9 17 -10 12 -2 -4 7 -2 12 4
12 7 0 9 -8 5 -20 -4 -12 -2 -20 5 -20 7 0 10 -7 7 -15 -4 -8 -1 -17 5 -21 7
-4 8 -3 4 4 -5 8 3 12 24 12 18 0 29 4 25 10 -3 6 -2 10 3 10 6 0 15 -14 21
-30 6 -18 6 -28 1 -25 -6 4 -10 -1 -10 -10 0 -9 4 -14 9 -10 5 3 13 0 17 -6 4
-7 3 -9 -3 -6 -12 8 -39 -20 -29 -30 3 -3 6 -1 6 6 0 8 5 9 19 2 25 -14 47 9
28 28 -9 10 -9 11 4 6 15 -6 24 8 27 39 0 5 4 12 9 15 15 11 38 45 26 37 -7
-4 -13 -2 -13 3 0 6 5 11 12 11 6 0 9 3 5 6 -3 3 -2 16 3 28 6 17 4 25 -11 34
-13 8 -19 9 -19 1 0 -5 -4 -7 -10 -4 -5 3 -7 0 -4 -8 3 -8 -2 -19 -10 -26 -8
-7 -12 -20 -9 -29 4 -14 3 -15 -6 -2 -9 13 -12 13 -23 1 -10 -10 -10 -12 0 -7
15 9 17 -30 1 -40 -13 -8 -30 16 -22 30 3 5 1 6 -5 2 -20 -12 -13 2 12 27 19
19 22 27 13 36 -7 7 -7 11 -2 9 6 -2 11 1 12 6 1 5 7 13 15 17 8 6 9 9 1 9 -6
0 -9 9 -6 21 5 19 3 21 -25 17 -31 -4 -36 1 -33 30 1 6 -3 12 -9 12 -6 0 -10
8 -9 18 4 26 -10 59 -28 66 -14 6 -14 4 -2 -11z m-31 -217 c0 -3 -4 -8 -10
-11 -5 -3 -10 -1 -10 4 0 6 5 11 10 11 6 0 10 -2 10 -4z"/>
<path d="M1266 1718 c3 -5 10 -6 15 -3 13 9 11 12 -6 12 -8 0 -12 -4 -9 -9z"/>
<path d="M1283 1698 c-13 -17 -10 -97 3 -106 6 -4 10 -15 8 -24 -1 -10 4 -18
12 -18 9 0 12 -4 9 -10 -3 -5 -1 -10 4 -10 6 0 10 -5 9 -11 -2 -6 4 -14 12
-16 13 -4 13 -3 0 6 -14 10 -8 15 15 12 6 -1 3 4 -5 11 -8 7 -16 31 -17 53 -4
58 -5 65 -15 65 -5 0 -7 4 -3 9 3 5 -1 16 -9 24 -8 8 -12 17 -9 21 4 3 4 6 1
6 -3 0 -10 -6 -15 -12z"/>
<path d="M402 1634 c-7 -8 -8 -14 -3 -14 10 0 25 19 20 25 -2 1 -10 -3 -17
-11z"/>
<path d="M935 1590 c-4 -6 1 -18 11 -26 18 -13 18 -14 -1 -8 -15 4 -16 3 -6
-4 9 -7 10 -12 2 -16 -6 -4 -11 -12 -11 -18 0 -6 9 1 21 16 21 27 22 57 2 63
-6 2 -14 -1 -18 -7z"/>
<path d="M192 1523 c-6 -2 -10 -9 -7 -14 3 -5 1 -18 -6 -30 -8 -17 -8 -23 1
-29 7 -5 10 -15 7 -24 -4 -9 -1 -16 6 -16 8 0 6 -4 -3 -10 -12 -8 -12 -10 5
-10 17 0 17 -2 5 -10 -12 -8 -12 -10 -1 -10 11 0 11 -3 1 -15 -7 -8 -17 -12
-23 -8 -6 3 -7 1 -3 -6 4 -6 12 -8 18 -5 7 4 8 2 4 -4 -4 -6 -14 -8 -23 -5
-11 4 -14 3 -9 -5 4 -7 2 -12 -3 -12 -6 0 -11 5 -11 12 0 9 -3 9 -12 0 -7 -7
-16 -12 -22 -12 -5 0 -1 6 9 14 11 8 24 12 30 8 5 -3 4 2 -3 11 -8 9 -12 20
-9 24 2 4 0 17 -4 28 -8 17 -9 16 -5 -5 l5 -25 -20 25 c-10 14 -17 18 -13 9 3
-10 0 -20 -7 -25 -8 -4 -10 -3 -5 4 4 7 3 12 -2 12 -5 0 -14 -10 -21 -22 -11
-23 -11 -23 -5 2 4 17 3 22 -4 15 -5 -5 -12 -19 -14 -30 -2 -11 -8 -19 -14
-18 -5 1 -14 -9 -21 -23 -6 -13 -7 -24 -2 -24 5 0 9 -5 9 -11 0 -5 -4 -7 -10
-4 -6 3 -7 -1 -4 -9 3 -9 10 -16 14 -16 5 0 7 -9 5 -20 -2 -13 2 -20 11 -20 8
0 14 -5 14 -12 0 -6 3 -8 6 -5 4 4 1 14 -7 23 -13 16 -12 16 8 6 18 -10 20 -9
16 7 -3 12 3 26 16 37 11 10 18 21 16 24 -2 4 2 7 10 7 11 0 12 -4 4 -14 -9
-10 -8 -13 2 -13 9 0 10 -3 3 -8 -6 -4 -10 -17 -9 -30 1 -13 -3 -26 -8 -29 -6
-4 -7 -1 -2 7 5 8 4 11 -2 7 -5 -3 -10 -22 -11 -41 -1 -18 -3 -40 -4 -47 -4
-17 40 -25 55 -10 7 7 2 8 -14 5 -21 -4 -22 -3 -4 5 25 11 38 4 31 -16 -3 -8
-1 -11 5 -8 5 4 7 16 3 27 -4 14 -2 18 5 14 6 -4 11 -2 11 5 0 8 4 8 15 -1 8
-7 15 -19 15 -27 0 -11 7 -13 26 -9 14 4 23 3 20 -2 -3 -5 1 -9 8 -9 7 0 13 6
13 13 0 7 -4 11 -9 8 -4 -3 -8 0 -8 5 0 6 5 11 11 11 5 0 7 6 3 13 -5 8 -2 8
9 -2 15 -12 17 -11 17 2 0 11 5 14 18 10 15 -6 15 -5 3 10 -12 15 -11 17 3 17
9 0 15 5 13 12 -1 7 4 13 11 14 26 3 27 5 12 14 -8 5 -10 10 -4 10 16 0 12 53
-6 68 -13 10 -12 11 5 5 24 -8 18 0 -12 16 -19 9 -22 9 -17 -3 3 -8 0 -17 -7
-22 -7 -4 -10 -3 -5 4 3 6 2 14 -4 17 -6 4 -10 3 -9 -2 3 -20 -2 -34 -11 -28
-6 3 -7 -1 -4 -9 3 -9 2 -16 -3 -16 -14 0 -37 -75 -29 -95 3 -9 2 -13 -3 -10
-5 3 -12 -4 -16 -15 -4 -11 -11 -18 -16 -15 -5 4 -2 13 6 21 8 9 15 20 15 26
0 6 -8 0 -18 -12 -16 -20 -20 -21 -25 -7 -4 11 1 21 15 28 17 9 18 13 7 20
-11 7 -11 9 2 9 13 0 17 9 15 36 -1 20 2 38 6 40 5 3 8 13 8 22 0 10 -3 13 -8
6 -4 -6 -13 -4 -24 8 -17 17 -15 23 6 19 5 -1 4 5 -4 13 -7 9 -8 16 -2 16 5 0
10 25 10 55 0 30 -5 55 -10 55 -7 0 -6 5 1 13 16 21 2 32 -27 20z"/>
<path d="M534 1492 c-4 -13 -11 -19 -18 -15 -6 4 -5 -1 3 -10 12 -15 11 -17
-5 -17 -14 0 -16 -2 -6 -9 11 -7 11 -9 -2 -14 -10 -4 -13 -12 -9 -23 5 -14 3
-16 -12 -11 -15 6 -16 5 -5 -8 10 -12 10 -15 -1 -15 -9 0 -10 -3 -3 -8 6 -4
10 -16 9 -28 -1 -11 4 -21 11 -21 7 0 11 4 8 9 -3 4 2 8 10 8 8 0 18 5 22 12
4 7 3 8 -4 4 -19 -11 -14 5 6 21 11 10 12 12 2 8 -9 -4 -7 0 4 9 10 8 15 19
11 25 -3 6 -2 11 3 11 14 0 9 67 -6 82 -10 10 -14 9 -18 -10z"/>
<path d="M613 1493 c3 -5 -1 -22 -8 -37 -8 -16 -13 -32 -10 -36 3 -5 0 -10 -7
-12 -7 -3 -8 -9 -3 -18 12 -20 14 -50 3 -44 -5 4 -7 13 -4 21 3 8 2 11 -3 8
-6 -3 -9 -14 -8 -24 1 -23 29 -21 34 2 5 29 11 52 13 52 8 0 4 87 -3 92 -6 3
-7 2 -4 -4z"/>
<path d="M663 1485 c0 -8 4 -12 9 -9 5 3 6 10 3 15 -9 13 -12 11 -12 -6z"/>
<path d="M1335 1480 c3 -5 8 -10 11 -10 2 0 4 5 4 10 0 6 -5 10 -11 10 -5 0
-7 -4 -4 -10z"/>
<path d="M687 1459 c7 -7 15 -10 18 -7 3 3 -2 9 -12 12 -14 6 -15 5 -6 -5z"/>
<path d="M746 1451 c-3 -5 1 -11 9 -14 9 -4 12 -1 8 9 -6 16 -10 17 -17 5z"/>
<path d="M817 1436 c-4 -10 -12 -14 -18 -10 -8 4 -9 3 -5 -5 6 -9 11 -9 22 0
8 6 14 7 14 2 0 -8 -48 -41 -67 -46 -5 -1 -8 -10 -7 -19 0 -14 -2 -15 -13 -6
-11 9 -12 7 -7 -7 4 -11 3 -16 -2 -13 -5 4 -18 0 -29 -8 -10 -8 -15 -14 -11
-14 5 0 3 -6 -4 -14 -6 -8 -19 -12 -27 -9 -11 4 -14 2 -9 -5 5 -8 2 -10 -9 -6
-9 4 -21 -1 -29 -11 -10 -14 -15 -15 -21 -5 -6 9 -4 11 5 5 9 -5 11 -4 6 4
-10 16 -26 4 -19 -14 4 -11 1 -13 -11 -9 -9 3 -13 10 -10 15 3 5 0 9 -6 9 -6
0 -8 -12 -5 -31 4 -19 2 -28 -5 -24 -15 9 -12 2 14 -33 20 -28 25 -30 31 -15
6 16 8 15 20 -7 7 -14 10 -29 5 -35 -4 -5 -4 -19 0 -30 4 -11 4 -34 0 -52 -5
-22 -4 -31 3 -26 6 4 8 0 4 -10 -3 -9 -2 -19 4 -22 5 -4 6 -11 3 -17 -4 -7 -2
-8 4 -4 16 9 15 -7 0 -22 -7 -7 -9 -12 -6 -12 14 0 49 61 53 90 2 17 9 38 16
46 6 8 9 17 6 21 -4 3 -1 15 5 27 7 11 13 24 14 29 1 4 3 10 4 15 1 4 2 10 1
15 0 4 3 7 9 7 5 0 7 6 4 14 -3 7 2 16 11 20 9 3 13 10 10 16 -3 6 1 13 10 16
13 6 14 8 3 15 -10 7 -9 9 4 9 9 0 20 5 24 12 5 7 2 9 -7 4 -8 -4 -6 -1 3 7
10 8 15 17 11 20 -3 4 -1 7 6 7 7 0 10 4 6 9 -3 5 -1 12 5 16 6 4 8 10 5 15
-3 4 2 11 11 14 8 3 12 10 9 16 -3 5 -1 10 4 10 6 0 11 5 11 11 0 5 -4 8 -9 4
-6 -3 -8 4 -6 16 3 17 1 19 -9 9 -11 -8 -15 -8 -18 2 -3 8 -7 6 -11 -6z m-232
-214 c-3 -3 -11 0 -18 7 -9 10 -8 11 6 5 10 -3 15 -9 12 -12z m5 -48 c0 -3 -7
-1 -15 6 -8 7 -15 17 -15 22 0 5 7 3 15 -6 8 -8 15 -18 15 -22z m17 30 c-3 -3
-12 -4 -19 -1 -8 3 -5 6 6 6 11 1 17 -2 13 -5z m56 -219 c-3 -9 -8 -14 -10
-11 -3 3 -2 9 2 15 9 16 15 13 8 -4z"/>
<path d="M670 1417 c-10 -8 -16 -30 -16 -62 0 -27 1 -44 3 -37 8 21 22 13 18
-9 -3 -12 -1 -19 2 -15 4 3 8 23 9 44 2 25 0 31 -5 18 -5 -13 -10 -16 -14 -9
-4 6 1 19 10 29 16 16 16 17 1 11 -12 -4 -15 -2 -11 8 3 8 9 13 13 10 5 -3 11
-1 14 4 10 15 -8 20 -24 8z"/>
<path d="M1055 1380 c3 -5 0 -10 -8 -10 -8 0 -18 -10 -22 -22 -12 -38 -12 -78
-1 -78 6 0 4 -5 -4 -10 -11 -7 -11 -10 -2 -10 7 0 11 -4 8 -9 -4 -5 0 -11 6
-13 17 -6 20 -448 4 -448 -6 0 -5 -4 2 -9 10 -6 10 -10 -2 -21 -9 -7 -13 -16
-10 -21 3 -5 2 -15 -3 -21 -10 -17 -10 -39 -1 -59 4 -9 3 -20 -3 -26 -6 -6 -2
-16 12 -29 13 -10 19 -14 16 -7 -12 19 11 25 23 6 10 -16 11 -16 6 -1 -3 10 0
20 6 24 7 4 8 3 4 -4 -10 -16 7 -15 23 1 10 10 11 9 6 -5 -4 -11 -2 -18 4 -18
6 0 11 7 11 15 0 8 4 15 10 15 5 0 6 -7 3 -17 -4 -10 -2 -14 4 -10 6 4 14 1
17 -5 3 -7 4 -2 1 12 -3 14 -2 19 1 13 3 -7 12 -13 20 -13 9 0 13 4 10 9 -3 5
2 8 11 7 10 0 19 8 21 19 2 11 9 23 14 26 5 3 10 22 11 42 1 21 4 37 7 37 3 0
5 38 6 85 0 47 -3 85 -7 85 -4 0 -6 11 -5 25 2 15 -1 22 -7 18 -6 -4 -8 0 -4
10 3 10 3 17 -2 17 -4 0 -6 17 -4 38 3 20 5 45 6 55 1 9 4 17 8 17 4 0 5 42 3
93 -6 117 -6 117 -16 117 -5 0 -6 5 -3 10 4 6 3 10 -2 9 -20 -4 -24 2 -12 18
10 11 10 14 2 9 -8 -4 -13 -2 -13 6 0 9 -3 9 -10 -2 -8 -13 -10 -12 -10 3 0 9
5 17 12 17 6 0 8 3 4 7 -4 5 -14 -1 -22 -11 -13 -19 -20 -11 -15 17 0 4 -4 7
-9 7 -6 0 -8 -12 -6 -26 4 -21 2 -23 -9 -14 -10 8 -14 8 -18 -2 -4 -10 -6 -10
-6 1 -1 11 -4 11 -18 0 -15 -13 -15 -12 -5 8 20 37 13 39 -17 3 -23 -27 -29
-30 -26 -15 1 11 8 19 16 17 10 -3 10 0 -1 12 -14 18 -25 22 -15 6z m117 -187
c-2 -13 0 -23 6 -23 11 0 9 -31 -2 -49 -4 -5 0 -12 6 -14 9 -4 10 -8 2 -14 -6
-4 -13 -15 -16 -24 -4 -9 -15 -19 -26 -21 -16 -5 -20 -1 -17 13 2 10 1 20 -3
23 -6 3 -7 53 -3 122 1 6 14 10 29 10 24 0 28 -3 24 -23z m-12 -296 c0 -4 5
-5 10 -2 12 7 12 6 15 -62 2 -29 -1 -53 -6 -53 -4 0 -5 -8 -2 -17 6 -16 5 -16
-10 -5 -14 12 -16 11 -12 -7 5 -25 -6 -33 -25 -19 -12 8 -11 9 5 4 17 -5 18
-4 5 7 -20 16 -23 32 -21 92 4 78 5 84 15 78 5 -4 7 2 3 13 -7 18 -7 18 8 0 8
-11 15 -24 15 -29z"/>
<path d="M1320 1381 c0 -7 -4 -10 -9 -6 -16 9 -24 -15 -10 -31 9 -12 9 -13 -2
-9 -11 4 -14 -6 -15 -40 0 -25 3 -45 8 -45 4 0 8 -5 8 -11 0 -5 -6 -7 -12 -4
-7 4 -6 1 3 -7 22 -19 29 -44 16 -58 -7 -7 -7 -10 -2 -7 7 4 10 -59 9 -191 -2
-240 -2 -235 -14 -227 -6 4 -7 -1 -3 -11 4 -10 2 -15 -3 -11 -6 3 -10 -14 -10
-45 1 -32 6 -53 14 -56 6 -2 12 -13 12 -25 1 -21 1 -21 16 3 8 14 13 18 11 10
-3 -10 2 -16 15 -17 16 -2 17 1 8 13 -17 19 -5 18 14 -2 12 -12 16 -12 16 -2
0 10 3 9 10 -2 8 -12 10 -8 11 15 1 17 1 34 0 39 -1 4 6 15 16 22 13 10 14 13
4 12 -8 -2 -16 6 -18 17 -3 11 -7 27 -10 35 -13 33 -14 52 -16 240 -1 139 2
201 11 218 6 13 12 36 12 49 0 22 2 24 16 13 22 -19 46 -81 41 -107 -2 -13 1
-23 7 -23 6 0 4 -5 -4 -10 -12 -8 -12 -10 -1 -10 11 0 11 -3 1 -15 -10 -12
-10 -15 1 -15 9 0 10 -3 4 -8 -13 -9 -13 -85 0 -94 6 -5 6 -8 -1 -8 -14 0 -13
-62 1 -72 6 -5 6 -8 -2 -8 -7 0 -9 -13 -6 -39 7 -54 -4 -114 -20 -104 -7 4 -7
0 2 -10 12 -15 11 -17 -5 -17 -11 0 -15 -4 -9 -8 14 -10 14 -63 1 -54 -6 3 -5
-1 2 -10 10 -13 10 -17 0 -21 -10 -4 -10 -6 0 -6 6 -1 12 -8 12 -16 0 -18 16
-20 26 -3 5 7 3 8 -6 3 -9 -6 -11 -4 -6 4 6 9 13 8 29 -6 11 -10 17 -13 14 -7
-4 7 0 14 8 17 8 4 12 1 9 -7 -3 -7 4 -12 19 -12 13 0 24 5 25 11 6 58 2 119
-8 125 -7 5 -10 15 -7 24 4 9 2 16 -4 16 -6 0 -9 29 -8 70 1 39 3 69 4 68 1
-2 8 -14 15 -27 10 -19 10 -22 -2 -15 -10 6 -11 5 -2 -7 9 -12 26 -62 26 -79
0 -3 3 -9 7 -15 4 -5 6 -20 5 -32 0 -13 2 -23 5 -23 4 0 8 -11 9 -26 1 -14 6
-33 12 -43 5 -10 6 -21 3 -25 -3 -3 -1 -6 6 -6 7 0 10 -4 6 -9 -3 -5 -1 -13 5
-16 6 -4 10 -3 9 2 -3 18 2 33 11 33 5 0 7 -6 4 -14 -8 -21 23 -14 40 9 14 19
15 19 33 2 11 -9 23 -14 26 -10 4 3 7 1 7 -5 0 -7 4 -12 10 -12 5 0 9 5 7 11
-1 6 5 14 13 16 13 4 13 3 0 -6 -8 -6 -13 -11 -10 -12 3 0 13 -2 23 -4 9 -2
15 0 12 5 -3 4 2 10 10 13 10 4 12 1 8 -11 -4 -12 2 -10 21 8 15 14 27 21 26
15 -5 -23 1 -23 23 -2 13 12 22 25 20 30 -2 4 1 7 8 7 7 0 10 3 6 6 -3 4 0 19
8 34 8 15 11 30 8 34 -4 3 -2 6 3 6 5 0 10 8 11 18 0 9 4 44 9 77 13 100 7
342 -9 352 -4 3 -2 12 5 21 10 12 10 14 1 8 -12 -6 -19 18 -14 47 0 4 -3 7 -8
7 -6 0 -8 9 -6 20 2 12 0 18 -6 14 -6 -3 -13 4 -16 16 -3 12 -11 19 -19 16 -7
-3 -17 6 -23 22 -5 15 -10 21 -10 15 -1 -7 -5 -13 -11 -13 -5 0 -6 7 -3 17 4
11 3 14 -5 9 -17 -10 -15 -27 6 -43 15 -12 14 -12 -10 -2 -15 7 -25 16 -22 20
7 12 -3 11 -29 -3 -20 -10 -21 -10 -8 6 8 9 11 19 7 23 -3 3 -6 1 -6 -6 0 -9
-8 -11 -25 -7 -15 4 -25 2 -25 -4 0 -6 6 -8 13 -4 6 4 9 4 5 -1 -4 -4 0 -15
10 -23 11 -9 8 -9 -10 2 -16 9 -29 15 -29 14 -2 -4 -9 -50 -12 -78 -1 -14 4
-33 13 -44 12 -15 15 -57 16 -240 1 -151 -2 -226 -10 -235 -9 -12 -8 -13 2 -7
10 6 10 1 -2 -22 -8 -16 -12 -33 -8 -36 3 -4 -2 -4 -12 0 -12 5 -16 14 -13 31
3 17 1 21 -8 13 -9 -8 -14 -5 -18 10 -3 13 -1 18 6 13 7 -3 5 2 -4 13 -16 20
-42 93 -42 119 0 8 -4 15 -8 15 -5 0 -6 7 -3 15 4 8 11 12 17 8 6 -4 8 0 4 10
-3 9 -1 17 5 19 12 4 18 28 21 90 1 21 5 38 8 38 4 0 5 21 4 48 -2 26 -4 68
-6 95 -1 26 -7 47 -11 47 -5 0 -7 4 -4 8 3 5 -8 22 -24 37 -21 20 -28 35 -24
48 4 13 2 17 -5 13 -6 -4 -11 -14 -11 -22 0 -8 -5 -14 -11 -14 -5 0 -7 5 -4
10 8 13 -1 13 -28 -2 -20 -10 -21 -10 -8 6 8 9 11 19 7 23 -3 3 -6 1 -6 -6 0
-9 -8 -11 -25 -7 -15 4 -25 2 -25 -4 0 -6 4 -9 9 -5 5 3 12 1 15 -3 3 -5 -5
-9 -17 -8 -12 0 -22 6 -22 13 0 6 -4 15 -9 20 -5 4 -6 3 -3 -3 4 -7 0 -17 -8
-24 -12 -10 -13 -8 -10 10 3 18 2 20 -10 10 -8 -6 -11 -18 -8 -26 3 -8 -1 -22
-8 -31 -12 -14 -12 -16 1 -8 12 7 13 6 3 -7 -7 -8 -10 -18 -6 -22 4 -3 8 -14
9 -22 2 -14 0 -14 -15 0 -10 10 -17 27 -15 41 1 14 -1 25 -6 25 -4 0 -6 9 -3
20 6 21 -20 29 -32 10 -3 -5 -12 -10 -18 -10 -7 0 -6 4 3 10 21 13 -5 13 -30
0 -13 -7 -21 -7 -26 2 -4 6 -3 8 4 4 12 -7 28 12 18 21 -3 4 -6 1 -6 -6z m170
-41 c0 -5 -5 -10 -11 -10 -5 0 -7 5 -4 10 3 6 8 10 11 10 2 0 4 -4 4 -10z
m114 -142 c-3 -5 -1 -8 4 -8 10 0 7 -113 -3 -129 -3 -6 -13 -7 -22 -4 -10 4
-14 2 -10 -4 3 -5 0 -10 -8 -10 -18 0 -26 38 -23 110 2 50 5 58 20 54 10 -3
21 0 25 5 3 6 1 8 -5 4 -6 -3 -14 -1 -18 5 -4 8 -3 9 4 5 7 -4 12 -2 12 5 0 7
6 4 14 -6 8 -11 12 -23 10 -27z m276 16 c0 -3 -4 -2 -10 1 -6 3 -7 -1 -4 -9 3
-9 10 -14 14 -11 4 3 11 -2 14 -11 3 -8 2 -12 -4 -9 -6 3 -7 -1 -4 -9 3 -9 9
-16 13 -16 8 0 10 -14 14 -167 1 -62 0 -113 -4 -113 -3 0 -6 -10 -5 -22 1 -13
-5 -29 -14 -36 -8 -8 -9 -11 -2 -7 6 3 12 2 12 -3 0 -6 -8 -13 -17 -16 -15 -6
-15 -8 -3 -16 13 -8 12 -10 -2 -10 -11 0 -16 -6 -13 -18 2 -11 -3 -19 -10 -19
-8 0 -11 7 -7 15 3 10 1 13 -6 8 -13 -8 -14 36 -13 323 1 89 5 137 12 142 6 4
8 12 4 19 -6 9 -3 9 14 1 11 -7 21 -14 21 -17z m-150 -564 c0 -5 -2 -10 -4
-10 -3 0 -8 5 -11 10 -3 6 -1 10 4 10 6 0 11 -4 11 -10z"/>
<path d="M2158 1378 c8 -10 9 -19 3 -22 -5 -3 -11 -1 -13 6 -3 7 -11 9 -24 3
-10 -4 -22 -8 -25 -7 -4 1 -5 -8 -2 -19 3 -11 1 -19 -5 -17 -5 2 -10 -1 -10
-6 0 -5 -5 -12 -11 -15 -5 -4 -12 -19 -15 -34 -2 -14 -8 -32 -12 -39 -8 -12
-15 -50 -15 -78 -1 -8 -3 -22 -6 -30 -11 -29 -10 -225 1 -232 8 -5 7 -8 -1 -8
-8 0 -9 -9 -2 -32 11 -41 11 -40 -3 -33 -7 4 -6 1 2 -7 8 -7 15 -24 14 -38 0
-14 3 -32 7 -40 4 -8 13 -30 19 -47 7 -18 16 -33 21 -33 5 0 9 -8 9 -19 0 -23
25 -47 35 -31 3 5 11 10 17 10 6 0 5 -7 -3 -17 -10 -14 -8 -13 10 2 14 11 22
15 18 9 -3 -6 1 -11 9 -11 9 0 13 6 9 15 -4 12 -3 13 9 3 13 -11 15 -9 11 9
-4 18 -2 20 11 9 12 -10 13 -9 8 5 -3 9 -2 16 4 16 5 0 13 12 17 28 5 15 10
33 12 39 2 7 6 26 10 43 3 16 9 30 13 30 4 0 6 10 5 23 -1 12 1 64 4 115 3 50
4 92 1 92 -3 0 -4 27 -3 60 1 41 -1 59 -8 54 -7 -4 -7 1 0 15 7 11 8 21 2 21
-8 0 -13 19 -25 89 -3 13 -10 27 -16 31 -6 4 -10 13 -8 21 2 8 -5 14 -16 14
-11 0 -21 6 -24 13 -2 6 -9 9 -14 6 -7 -5 -8 -2 -3 6 6 10 11 9 22 -5 7 -11
13 -14 13 -8 0 7 -15 22 -32 34 -19 14 -28 16 -20 7z m-28 -33 c-7 -9 -15 -13
-19 -10 -3 3 1 10 9 15 21 14 24 12 10 -5z m51 -174 c-3 -10 0 -12 10 -6 11 7
11 5 -1 -10 -8 -10 -10 -16 -4 -12 7 4 12 -2 13 -16 1 -12 2 -38 4 -57 1 -19
6 -38 12 -42 7 -5 7 -8 0 -8 -6 0 -10 -29 -9 -68 0 -37 -3 -75 -8 -84 -5 -11
-5 -18 1 -18 5 0 4 -12 -4 -26 -7 -15 -11 -32 -9 -39 3 -6 -2 -18 -10 -25 -9
-7 -13 -16 -10 -21 6 -10 -19 -12 -29 -2 -4 3 -2 12 4 20 9 10 8 13 -5 13 -10
0 -14 5 -11 10 3 6 2 10 -3 10 -5 0 -9 6 -9 13 -1 22 -15 102 -18 106 -3 2 0
13 6 24 6 10 7 17 2 14 -6 -4 -9 15 -7 46 1 29 3 52 4 52 1 0 3 22 5 49 2 27
8 53 14 59 5 5 7 16 4 23 -3 8 0 14 6 14 6 0 10 3 10 8 -4 26 4 29 24 9 13
-12 21 -28 18 -36z"/>
<path d="M2336 1382 c-3 -2 -2 -11 1 -20 4 -10 2 -13 -5 -8 -8 5 -10 1 -5 -10
4 -10 2 -15 -3 -11 -6 3 -9 -8 -8 -26 1 -18 3 -32 4 -32 1 0 3 -13 4 -28 1
-16 6 -31 12 -35 10 -7 14 -452 4 -452 -3 0 -6 -10 -7 -22 -1 -11 -6 -24 -11
-27 -10 -7 -10 -51 1 -68 4 -6 3 -14 -3 -18 -6 -4 -8 -11 -4 -16 3 -6 12 -5
22 3 14 12 14 10 2 -12 -12 -22 -11 -24 2 -13 8 7 19 9 23 5 5 -4 5 -2 1 5 -3
6 -2 15 4 18 6 4 9 3 8 -2 -2 -4 2 -9 7 -9 6 -1 9 3 7 10 -1 6 4 3 11 -6 15
-19 33 -25 22 -8 -3 6 1 10 9 10 11 0 14 13 13 63 -1 38 -6 61 -13 60 -6 -1
-11 14 -12 34 -1 20 -4 38 -6 41 -3 2 -1 13 5 23 6 12 6 19 0 19 -8 0 -8 21
-1 40 1 3 2 9 1 13 -1 5 3 6 9 2 6 -3 8 -10 5 -15 -3 -5 0 -22 8 -37 7 -15 12
-36 10 -45 -3 -10 0 -18 6 -18 6 0 11 -5 11 -11 0 -5 -4 -8 -8 -5 -5 3 -9 -1
-9 -8 0 -8 5 -12 12 -10 7 3 10 -6 9 -26 -1 -16 1 -30 5 -30 4 0 8 -14 9 -32
2 -18 8 -35 14 -39 6 -4 8 -12 4 -18 -5 -7 -1 -8 11 -4 15 6 16 4 5 -9 -10
-13 -10 -18 -1 -24 7 -4 10 -3 7 2 -3 5 3 18 13 28 18 18 18 18 14 -3 -2 -12
0 -19 6 -16 5 4 9 12 9 20 0 8 5 17 12 21 8 5 9 2 5 -9 -3 -9 -3 -18 1 -21 4
-2 8 22 9 55 1 32 -2 59 -7 59 -4 0 -11 7 -14 16 -3 8 -2 12 4 9 6 -3 10 -1
10 4 0 6 -7 11 -16 11 -8 0 -12 5 -9 10 3 6 1 10 -6 10 -7 0 -10 3 -6 6 3 3
-1 25 -10 47 -8 23 -16 47 -17 54 -1 7 -5 15 -9 19 -3 4 -2 15 4 25 5 11 6 19
2 19 -4 0 2 7 13 16 10 8 14 13 7 10 -8 -4 -7 4 3 23 8 17 17 40 20 53 5 27 5
161 0 199 -7 44 -43 117 -65 128 -18 10 -20 9 -14 -6 6 -16 5 -16 -10 -4 -10
8 -20 11 -24 7 -4 -3 2 -13 13 -22 18 -14 18 -15 -4 -4 -14 7 -21 17 -18 26 3
8 1 14 -4 14 -6 0 -10 -10 -10 -22 0 -18 -2 -20 -9 -8 -6 8 -8 17 -6 20 2 3
-5 6 -15 6 -17 0 -18 -2 -5 -16 13 -15 13 -17 0 -17 -8 0 -12 4 -9 9 3 4 1 8
-5 8 -5 0 -14 -8 -20 -17 -9 -16 -10 -16 -8 4 0 12 4 20 7 18 4 -2 7 2 7 9 0
12 -22 18 -31 8z m182 -47 c-3 -3 -9 2 -12 12 -6 14 -5 15 5 6 7 -7 10 -15 7
-18z m-54 -110 c-4 -10 0 -15 11 -15 12 0 16 -6 12 -20 -3 -11 -2 -20 2 -20 4
0 7 -13 6 -30 0 -16 -3 -30 -6 -30 -3 0 -5 -11 -4 -25 3 -27 -19 -53 -30 -35
-9 14 -28 13 -19 -2 5 -10 4 -10 -6 -1 -8 7 -12 36 -11 82 2 91 3 101 11 96 3
-2 12 0 20 6 20 12 20 11 14 -6z"/>
<path d="M1126 1372 c-3 -5 1 -9 9 -9 8 0 12 4 9 9 -3 4 -7 8 -9 8 -2 0 -6 -4
-9 -8z"/>
<path d="M1630 1356 c0 -2 7 -9 15 -16 9 -7 15 -8 15 -2 0 5 -7 12 -15 16 -8
3 -15 4 -15 2z"/>
<path d="M245 1280 c3 -5 8 -10 11 -10 2 0 4 5 4 10 0 6 -5 10 -11 10 -5 0 -7
-4 -4 -10z"/>
<path d="M85 1249 c-4 -6 -5 -12 -2 -15 2 -3 7 2 10 11 7 17 1 20 -8 4z"/>
<path d="M509 1153 c-10 -12 -10 -14 -1 -9 17 10 15 -5 -4 -32 -12 -17 -12
-22 -2 -22 9 0 9 -3 -2 -10 -10 -6 -11 -10 -3 -10 9 0 10 -7 3 -26 -7 -16 -7
-23 0 -19 6 4 10 -5 10 -19 0 -14 5 -26 11 -26 5 0 8 4 5 9 -4 5 3 7 14 4 11
-3 20 -10 21 -17 0 -6 5 0 10 14 8 20 12 22 20 10 9 -12 10 -12 5 3 -3 10 -2
26 3 35 11 21 -6 48 -34 54 -12 2 -19 10 -17 21 2 9 -2 17 -9 17 -6 0 -9 7 -6
15 9 21 -9 27 -24 8z m85 -91 c3 -5 -1 -9 -9 -9 -8 0 -12 4 -9 9 3 4 7 8 9 8
2 0 6 -4 9 -8z"/>
<path d="M692 973 c2 -11 -2 -17 -11 -15 -12 3 -12 1 -1 -14 8 -9 15 -26 16
-38 1 -11 5 -32 9 -46 4 -14 7 -31 7 -37 1 -7 5 -13 8 -13 8 0 10 -21 11 -95
1 -22 5 -45 11 -52 5 -7 7 -17 4 -22 -4 -5 -2 -12 3 -16 6 -3 7 -13 4 -22 -5
-12 -2 -12 15 3 26 22 28 28 6 20 -14 -5 -15 -4 -4 9 7 8 17 12 23 8 6 -4 7
-1 2 6 -4 7 -9 27 -11 44 -1 18 -6 46 -9 62 -3 17 -6 36 -7 43 -1 6 -4 12 -8
12 -4 0 -7 6 -8 13 -2 22 -7 42 -16 56 -6 9 -5 12 2 7 6 -4 5 5 -3 20 -8 15
-12 31 -9 36 3 4 0 8 -5 8 -6 0 -11 9 -11 20 0 11 -5 20 -10 20 -6 0 -10 -8
-8 -17z"/>
<path d="M530 970 c-9 -6 -10 -10 -3 -10 6 0 15 5 18 10 8 12 4 12 -15 0z"/>
<path d="M602 888 c-8 -8 -9 -15 -1 -25 9 -9 8 -13 0 -13 -7 0 -9 -4 -6 -10 3
-5 2 -10 -4 -10 -6 0 -8 -36 -6 -92 4 -86 10 -153 15 -153 1 0 3 -19 5 -43 2
-24 6 -46 9 -49 3 -4 0 -13 -7 -21 -10 -13 -9 -14 2 -7 11 6 13 3 9 -12 -3
-12 -2 -27 3 -34 4 -7 3 -19 -2 -25 -6 -7 -6 -15 -1 -18 13 -8 2 -56 -12 -56
-6 0 -4 -5 4 -10 11 -7 12 -12 3 -18 -7 -4 -11 -16 -9 -27 2 -11 0 -32 -5 -47
-5 -18 -4 -28 3 -28 6 0 8 -11 6 -25 -3 -14 -1 -28 5 -32 6 -4 7 -1 2 7 -6 9
-4 11 4 6 7 -5 10 -15 7 -23 -4 -9 -1 -13 6 -10 7 2 12 10 10 17 -2 8 3 10 14
6 12 -4 15 -2 11 9 -4 8 -2 17 4 20 5 4 6 12 2 18 -7 11 -10 37 -14 124 0 18
-4 31 -7 29 -4 -2 -7 9 -8 25 -1 18 3 26 10 22 6 -4 6 0 -1 9 -7 8 -10 18 -6
21 3 4 2 7 -3 7 -5 0 -9 11 -9 25 0 14 4 25 9 25 5 0 4 6 -1 13 -5 6 -9 29 -9
50 1 20 -2 37 -5 37 -3 0 -5 12 -4 28 1 15 -3 30 -9 34 -8 5 -7 8 1 8 8 0 9 9
3 30 -5 17 -6 30 -2 30 4 0 6 29 6 65 -1 36 2 65 7 65 4 0 4 13 -1 29 -4 16
-6 32 -2 35 3 3 1 6 -4 6 -6 0 -15 -5 -22 -12z"/>
</g>
</svg>
